# xmcd CD database file
#
# Track frame offsets:
#	150
#	16833
#	36408
#	51730
#	67400
#	79558
#	92835
#	108110
#	119975
#	132918
#
# Disc length: 1939 seconds
#
# Revision: 2
# Processed by: cddbd v1.5.2PL0 Copyright (c) Steve Scherf et al.
# Submitted via: CDex 1.70beta2
#
DISCID=9207910a
DTITLE=Tina Turner - Good Hearted Woman
DYEAR=1995
DGENRE=Rhythmic Soul
TTITLE0=Lay It Down
TTITLE1=Lovin´ Him Was Easier
TTITLE2=Good Hearted Woman
TTITLE3=If This Was Our Last Time
TTITLE4=Stand By Your Man
TTITLE5=Freedom To Stay
TTITLE6=We Had It All
TTITLE7=Soul Deep
TTITLE8=If It´s Alright With You
TTITLE9=You Ain´t Woman Enough To Take My Man
EXTD=YEAR: 1995
EXTT0=
EXTT1=
EXTT2=
EXTT3=
EXTT4=
EXTT5=
EXTT6=
EXTT7=
EXTT8=
EXTT9=
PLAYORDER=
